# xmcd
#
# Track frame offsets:
#   150
#   10350
#   18295
#   27780
#   39185
#   49155
#   59175
#   70515
#   76130
#   87890
#   95470
#   102240
#
# Disc length: 1470 seconds
#
# Revision: 0
# Processed by: cddbd v1.5.2PL0 Copyright (c) Steve Scherf et al.
# Submitted via: uFREEDB 1.6.0
#
DISCID=8905bc0c
DTITLE=Cristaldo Souza - Cristaldo Souza - 8 Baixos
DYEAR=1900
DGENRE=Country
TTITLE0=Fronteira
TTITLE1=Dorvalino
TTITLE2=Rodrigues
TTITLE3=Clarismundo
TTITLE4=Custódio
TTITLE5=Sebastian Loco
TTITLE6=Rosenwaltz
TTITLE7=Serrano
TTITLE8=Misturado
TTITLE9=Rodeio dos Ventos
TTITLE10=Baile do Ribeirão
TTITLE11=Oito Baixos
EXTD=
EXTT0=
EXTT1=
EXTT2=
EXTT3=
EXTT4=
EXTT5=
EXTT6=
EXTT7=
EXTT8=
EXTT9=
EXTT10=
EXTT11=
PLAYORDER=
